<?xml version="1.0" encoding="UTF-8"?>
<!DOCTYPE svg PUBLIC "-//W3C//DTD SVG 1.1//EN" "http://www.w3.org/Graphics/SVG/1.1/DTD/svg11.dtd">
<svg version="1.1" xmlns="http://www.w3.org/2000/svg" xmlns:xlink="http://www.w3.org/1999/xlink" x="0" y="0" width="50" height="50" viewBox="0, 0, 50, 50">
  <g id="New-icon-pack">
    <path d="M38.154,15.899 C39.101,14.917 40.658,14.917 41.605,15.899 C42.526,16.853 42.526,18.377 41.605,19.331 L26.668,34.81 C25.72,35.792 24.164,35.792 23.216,34.81 L8.278,19.331 C7.83,18.866 7.588,18.249 7.588,17.615 C7.588,16.981 7.83,16.364 8.278,15.899 C9.224,14.917 10.782,14.917 11.73,15.899 L24.942,29.59 L38.154,15.899 z M24.624,32.837 C24.793,32.662 25.091,32.662 25.26,32.837 L24.942,32.508 L24.624,32.837 z" id="Shape"/>
  </g>
</svg>
