<?xml version="1.0" encoding="UTF-8"?>
<!DOCTYPE svg PUBLIC "-//W3C//DTD SVG 1.1//EN" "http://www.w3.org/Graphics/SVG/1.1/DTD/svg11.dtd">
<svg version="1.1" xmlns="http://www.w3.org/2000/svg" xmlns:xlink="http://www.w3.org/1999/xlink" x="0" y="0" width="50" height="50" viewBox="0, 0, 50, 50">
  <g id="New-icon-pack">
    <path d="M11.434,34.264 C10.487,35.245 8.93,35.245 7.983,34.264 C7.062,33.31 7.062,31.786 7.983,30.832 L22.92,15.353 C23.868,14.371 25.424,14.371 26.372,15.353 L41.31,30.832 C41.758,31.297 42,31.913 42,32.548 C42,33.181 41.758,33.799 41.31,34.264 C40.364,35.245 38.806,35.245 37.858,34.264 L24.646,20.573 L11.434,34.264 z M24.964,17.326 C24.795,17.5 24.497,17.5 24.328,17.326 L24.646,17.655 L24.964,17.326 z" id="Shape"/>
  </g>
</svg>
